Coordinates
version=1
nRows=29
nColumns=24
inDegrees=yes

Units are S.I. units (second, meters, Newtons, ...)
Angles are in degrees.

endheader
time	pelvis_tilt	pelvis_list	pelvis_rotation	pelvis_tx	pelvis_ty	pelvis_tz	hip_flexion_r	hip_adduction_r	hip_rotation_r	knee_angle_r	ankle_angle_r	subtalar_angle_r	mtp_angle_r	hip_flexion_l	hip_adduction_l	hip_rotation_l	knee_angle_l	ankle_angle_l	subtalar_angle_l	mtp_angle_l	lumbar_extension	lumbar_bending	lumbar_rotation
      3.86000000	    -10.10259106	      2.67517046	      0.42947023	     -1.98141780	     -0.01256730	      0.39797966	     34.52367733	     -2.06637521	     -3.72943912	    -45.29282796	    -11.79220595	    -16.14588198	     10.01391085	      4.34887583	      6.13241247	     10.74110684	     -7.66727135	      4.02382265	      4.24423317	      6.71983197	      7.82372256	     -2.54729059	     -3.05368958
      3.86500000	    -10.17628756	      2.53868312	      0.82186570	     -1.97599964	     -0.01290440	      0.39769312	     34.70560996	     -2.08436719	     -3.99383204	    -43.54604697	    -11.21143814	    -15.27430231	     10.29555002	      3.92944878	      5.98989614	     11.00593018	     -7.44246147	      4.18203793	      4.40424459	      6.72445581	      7.80171581	     -2.53144255	     -3.38295262
      3.87000000	    -10.28075709	      2.39467359	      1.20925362	     -1.97055105	     -0.01330325	      0.39743197	     34.87760808	     -2.10229013	     -4.27578225	    -41.71541425	    -10.64012743	    -14.37654560	     10.61476366	      3.55552627	      5.83615377	     11.24430337	     -7.23806213	      4.34727563	      4.56072521	      6.76162110	      7.81809605	     -2.51064590	     -3.64001508
      3.87500000	    -10.37827067	      2.25708114	      1.59878548	     -1.96509975	     -0.01370215	      0.39719238	     34.99598847	     -2.12149779	     -4.49990572	    -39.80746228	    -10.06798481	    -13.39742435	     10.95017409	      3.18570039	      5.68596752	     11.47842516	     -7.05302822	      4.49906693	      4.71930687	      6.80167288	      7.82586689	     -2.49755915	     -3.92871661
      3.88000000	    -10.47526999	      2.12606391	      1.99314908	     -1.95965709	     -0.01411570	      0.39698526	     35.07044356	     -2.14605825	     -4.68294907	    -37.82881748	     -9.50688753	    -12.37149088	     11.28195172	      2.83243605	      5.54011635	     11.70076855	     -6.89575707	      4.64578751	      4.87518028	      6.84767877	      7.82953328	     -2.49693033	     -4.21433037
      3.88500000	    -10.57512967	      1.99201543	      2.37837095	     -1.95415340	     -0.01455134	      0.39680441	     35.10572481	     -2.16521698	     -4.84538754	    -35.79203925	     -8.97563277	    -11.33327908	     11.58760598	      2.48656262	      5.38726823	     11.90756470	     -6.75168764	      4.79054830	      5.02869955	      6.89532399	      7.84776450	     -2.49285972	     -4.46001686
      3.89000000	    -10.67902027	      1.86451696	      2.75851032	     -1.94861078	     -0.01500906	      0.39665194	     35.10428175	     -2.18821031	     -4.97328812	    -33.70266977	     -8.48404138	    -10.29744738	     11.86941612	      2.15365129	      5.23830152	     12.09369339	     -6.62548467	      4.93195966	      5.18737669	      6.94886318	      7.87495659	     -2.49698210	     -4.68512074
      3.89500000	    -10.77832982	      1.74430694	      3.13458607	     -1.94302732	     -0.01547957	      0.39652409	     35.06016519	     -2.21656145	     -5.06701510	    -31.57513916	     -8.04149252	     -9.28121731	     12.11373485	      1.82460921	      5.09371159	     12.26566810	     -6.51941986	      5.06972015	      5.35343537	      7.00625865	      7.90312704	     -2.50872835	     -4.89092879
      3.90000000	    -10.86986664	      1.63182507	      3.50760471	     -1.93739136	     -0.01596236	      0.39641249	     34.97231480	     -2.25309186	     -5.13632588	    -29.42226556	     -7.65104356	     -8.30518814	     12.31970780	      1.49579942	      4.95447022	     12.42351335	     -6.43542113	      5.20623944	      5.52951268	      7.07060624	      7.93150177	     -2.52897010	     -5.08360520
      3.90500000	    -11.00294549	      1.51660814	      3.83499272	     -1.93164085	     -0.01650692	      0.39638509	     34.90203923	     -2.26254160	     -5.16280884	    -27.25864343	     -7.37296829	     -7.42759098	     12.46290288	      1.20227903	      4.80436043	     12.54972466	     -6.34302908	      5.32090881	      5.69802196	      7.13379129	      8.02538451	     -2.54188393	     -5.19106912
      3.91000000	    -11.05463842	      1.43105685	      4.22522335	     -1.92591909	     -0.01698197	      0.39627110	     34.71084068	     -2.34342367	     -5.22327750	    -25.10148177	     -7.07412292	     -6.55508570	     12.60922578	      0.85774489	      4.68841174	     12.69718179	     -6.32148671	      5.44722251	      5.91255518	      7.22740018	      8.02296487	     -2.58349547	     -5.39383719
      3.91500000	    -11.13282240	      1.34368057	      4.57526278	     -1.92011397	     -0.01751194	      0.39625331	     34.53463455	     -2.39657318	     -5.23468912	    -22.97530206	     -6.89230583	     -5.79407395	     12.67059936	      0.54026810	      4.56230308	     12.82878337	     -6.30606083	      5.56587175	      6.10641551	      7.32064976	      8.06499205	     -2.62793872	     -5.51501697
      3.92000000	    -11.17817596	      1.27349754	      4.94292777	     -1.91426543	     -0.01801681	      0.39622549	     34.30465842	     -2.47988143	     -5.27032327	    -20.89251165	     -6.74205347	     -5.10120341	     12.70424483	      0.20627373	      4.45008003	     12.96279273	     -6.33268463	      5.67443490	      6.33216145	      7.44008438	      8.07616607	     -2.68871040	     -5.65238269
      3.92500000	    -11.20471050	      1.21530610	      5.30747494	     -1.90834902	     -0.01851587	      0.39621691	     34.04582300	     -2.57342395	     -5.31324209	    -18.87666588	     -6.64455614	     -4.48365849	     12.69631704	     -0.13773672	      4.34371672	     13.08958009	     -6.38677942	      5.77312528	      6.57920282	      7.58131731	      8.07903738	     -2.75677682	     -5.78142012
      3.93000000	    -11.21990470	      1.17132983	      5.66624646	     -1.90237309	     -0.01900948	      0.39624490	     33.77402011	     -2.67632886	     -5.35992909	    -16.94972023	     -6.59874500	     -3.92944690	     12.65316907	     -0.48131817	      4.24491728	     13.20703614	     -6.47169150	      5.85696657	      6.84993756	      7.74683908	      8.07977094	     -2.83768773	     -5.89531205
      3.93500000	    -11.22547901	      1.13581557	      6.01808228	     -1.89633023	     -0.01949795	      0.39629556	     33.49541288	     -2.78297092	     -5.41653737	    -15.12777700	     -6.59328963	     -3.42233658	     12.58571528	     -0.82053769	      4.14876987	     13.31464030	     -6.59154195	      5.92918160	      7.14661249	      7.94242572	      8.08055821	     -2.92291356	     -5.99319489
      3.94000000	    -11.22347015	      1.10720066	      6.36215899	     -1.89022560	     -0.01997843	      0.39637603	     33.21766654	     -2.89066085	     -5.48157431	    -13.42791246	     -6.62483078	     -2.94801402	     12.50101773	     -1.15157463	      4.05262354	     13.41597998	     -6.74829512	      5.99080649	      7.47120746	      8.17194479	      8.08509197	     -3.01021693	     -6.07719638
      3.94500000	    -11.20926256	      1.08048916	      6.70237944	     -1.88405827	     -0.02043721	      0.39648321	     32.93647960	     -2.99561777	     -5.56014070	    -11.85979270	     -6.68354286	     -2.49290492	     12.40610838	     -1.47658758	      3.95048954	     13.50734625	     -6.94438503	      6.04043480	      7.83069519	      8.44397388	      8.08676683	     -3.09641922	     -6.15192175
      3.95000000	    -11.18843572	      1.05385812	      7.03363360	     -1.87782908	     -0.02087491	      0.39661616	     32.66053177	     -3.09412121	     -5.64712424	    -10.43331936	     -6.76831724	     -2.04717215	     12.30377327	     -1.78897212	      3.84154920	     13.58725669	     -7.18039552	      6.07433252	      8.22073909	      8.75811846	      8.09256334	     -3.17684309	     -6.21259925
      3.95500000	    -11.13785349	      1.01005740	      7.33121986	     -1.87149585	     -0.02127051	      0.39677453	     32.36407131	     -3.15607328	     -5.74620156	     -9.15024039	     -6.85659663	     -1.57024126	     12.20056179	     -2.11943429	      3.70412759	     13.60941636	     -7.44183993	      6.09753977	      8.65713131	      9.15372416	      8.08653779	     -3.22174024	     -6.23096671
      3.96000000	    -11.12986495	      0.99782612	      7.67429938	     -1.86520963	     -0.02167365	      0.39692526	     32.12669653	     -3.27550840	     -5.83962426	     -8.02644760	     -6.98408862	     -1.14992028	     12.08597389	     -2.36601106	      3.60377593	     13.71415026	     -7.77693329	      6.08522759	      9.08884554	      9.52146057	      8.11436927	     -3.31533598	     -6.30575360
      3.96500000	    -11.08622678	      0.94674078	      7.98873041	     -1.85879706	     -0.02201995	      0.39708872	     31.85624883	     -3.34166952	     -5.97759340	     -7.04384504	     -7.09542907	     -0.66917072	     11.99306981	     -2.63267769	      3.45022134	     13.74957799	     -8.13945129	      6.07570087	      9.59298573	      9.99085577	      8.13049577	     -3.35042406	     -6.34729656
      3.97000000	    -11.05508742	      0.90293299	      8.30256750	     -1.85234074	     -0.02236374	      0.39726626	     31.60859140	     -3.41748339	     -6.09121689	     -6.22033919	     -7.17976402	     -0.19963247	     11.91015593	     -2.85867471	      3.30473703	     13.78869669	     -8.55698192	      6.03220867	     10.09071382	     10.46023046	      8.16635984	     -3.39300294	     -6.37522945
      3.97500000	    -11.01242487	      0.84431802	      8.59387917	     -1.84585020	     -0.02265249	      0.39745533	     31.36861399	     -3.47037487	     -6.28444725	     -5.55899092	     -7.29801332	      0.33054982	     11.83336770	     -3.07487218	      3.13600809	     13.79436097	     -9.00317809	      5.97598087	     10.65697001	     11.00984801	      8.19798929	     -3.40355899	     -6.40366742
      3.98000000	    -10.98375405	      0.78953646	      8.88718772	     -1.83928114	     -0.02295509	      0.39764433	     31.14360813	     -3.53185279	     -6.46483364	     -5.04595346	     -7.36069481	      0.84165660	     11.78254155	     -3.25273312	      2.97362261	     13.80242199	     -9.50008136	      5.90340201	     11.21319036	     11.55722232	      8.25816563	     -3.41999989	     -6.41963532
      3.98500000	    -10.95653511	      0.71608783	      9.16227090	     -1.83267547	     -0.02322037	      0.39782346	     30.94410657	     -3.57289941	     -6.69950478	     -4.70858298	     -7.43976848	      1.36955125	     11.75873719	     -3.40127139	      2.79048178	     13.78868622	    -10.03881144	      5.79552472	     11.80804866	     12.13493465	      8.32812686	     -3.40211826	     -6.42499687
      3.99000000	    -10.93345913	      0.63878475	      9.43267230	     -1.82601750	     -0.02347222	      0.39804282	     30.76225647	     -3.60792955	     -6.97607219	     -4.53154248	     -7.50991514	      1.88500734	     11.76886405	     -3.51804548	      2.59988822	     13.75255379	    -10.62233033	      5.67055104	     12.42980107	     12.74229831	      8.40879001	     -3.38565031	     -6.43030440
      3.99500000	    -10.91880122	      0.56956096	      9.67702242	     -1.81934631	     -0.02370851	      0.39828223	     30.62268982	     -3.64013536	     -7.28211969	     -4.53840727	     -7.63139846	      2.30673436	     11.80754952	     -3.61283593	      2.41883547	     13.76262339	    -11.23360169	      5.50898773	     13.05017177	     13.30832001	      8.49853502	     -3.36469240	     -6.38966739
      4.00000000	    -10.90882803	      0.44985463	      9.91686797	     -1.81251573	     -0.02394151	      0.39848810	     30.48006269	     -3.62832988	     -7.64304691	     -4.66225766	     -7.73370600	      2.75312140	     11.90820105	     -3.65992911	      2.18756577	     13.64280615	    -11.90658971	      5.33261861	     13.70711291	     13.97882889	      8.62682060	     -3.28990807	     -6.40577770
